<svg width="28" height="28" viewBox="0 0 28 28" fill="none" xmlns="http://www.w3.org/2000/svg">
<path d="M10.4766 1L18.6775 8.12279C19.3335 8.69258 19.7103 9.51882 19.7103 10.3878V19.1782M10.4766 1L2.06202 8.12105C1.38846 8.69106 1 9.52869 1 10.4111V23.7045C1 25.7898 3.07504 27.239 5.03289 26.5211L9.43018 24.9085C10.1053 24.6609 10.8468 24.6641 11.5198 24.9174L15.6535 26.4732C17.6153 27.2115 19.7103 25.7616 19.7103 23.6655V19.1782M10.4766 1H24C25.6569 1 27 2.34315 27 4V18.6041C27 21.0615 24.2073 22.4765 22.2257 21.0231L19.7103 19.1782" stroke="#B7B7B7" stroke-linecap="round"/>
</svg>
