<svg width="57" height="65" viewBox="0 0 57 65" fill="none" xmlns="http://www.w3.org/2000/svg">
<path d="M20.784 46V2.48H26.608C30.4907 8.02667 34.0533 13.616 37.296 19.248C40.5813 24.8373 43.6533 30.6827 46.512 36.784L45.872 20.144V2.48H51.312V46H45.488C42.5013 39.7707 39.408 33.712 36.208 27.824C33.0507 21.8933 29.5947 16.112 25.84 10.48L26.224 28.208V46H20.784Z" fill="black"/>
<g filter="url(#filter0_d_36_3)">
<path d="M35.968 51.016V56.712C31.8293 56.712 28.672 55.9867 26.496 54.536C24.3627 53.0853 22.72 50.8027 21.568 47.688L20.864 45.64H20.672C15.5947 45.64 11.6907 44.0613 8.96 40.904C6.272 37.704 4.928 33.3947 4.928 27.976V18.44C4.928 13.064 6.272 8.79733 8.96 5.64C11.6907 2.44 15.5947 0.839996 20.672 0.839996C25.7493 0.839996 29.632 2.44 32.32 5.64C35.0507 8.79733 36.416 13.064 36.416 18.44V27.976C36.416 32.328 35.5413 35.976 33.792 38.92C32.0427 41.864 29.4827 43.848 26.112 44.872C26.7093 46.536 27.3707 47.7947 28.096 48.648C28.864 49.544 29.8453 50.1413 31.04 50.44C32.2773 50.7813 33.92 50.9733 35.968 51.016ZM30.656 18.44C30.656 14.472 29.8027 11.4213 28.096 9.288C26.432 7.112 23.9573 6.024 20.672 6.024C17.4293 6.024 14.9547 7.112 13.248 9.288C11.5413 11.4213 10.688 14.472 10.688 18.44V27.976C10.688 31.9867 11.5413 35.08 13.248 37.256C14.9547 39.432 17.4293 40.52 20.672 40.52C23.9573 40.52 26.432 39.432 28.096 37.256C29.8027 35.08 30.656 31.9867 30.656 27.976V18.44Z" fill="black"/>
</g>
<defs>
<filter id="filter0_d_36_3" x="0.927979" y="0.839996" width="39.488" height="63.872" filterUnits="userSpaceOnUse" color-interpolation-filters="sRGB">
<feFlood flood-opacity="0" result="BackgroundImageFix"/>
<feColorMatrix in="SourceAlpha" type="matrix" values="0 0 0 0 0 0 0 0 0 0 0 0 0 0 0 0 0 0 127 0" result="hardAlpha"/>
<feOffset dy="4"/>
<feGaussianBlur stdDeviation="2"/>
<feComposite in2="hardAlpha" operator="out"/>
<feColorMatrix type="matrix" values="0 0 0 0 0 0 0 0 0 0 0 0 0 0 0 0 0 0 0.25 0"/>
<feBlend mode="normal" in2="BackgroundImageFix" result="effect1_dropShadow_36_3"/>
<feBlend mode="normal" in="SourceGraphic" in2="effect1_dropShadow_36_3" result="shape"/>
</filter>
</defs>
</svg>
